<?xml version="1.0" standalone="no"?>
<!DOCTYPE svg PUBLIC "-//W3C//DTD SVG 20010904//EN"
 "http://www.w3.org/TR/2001/REC-SVG-20010904/DTD/svg10.dtd">
<svg version="1.0" xmlns="http://www.w3.org/2000/svg"
 width="584.000000pt" height="584.000000pt" viewBox="0 0 584.000000 584.000000"
 preserveAspectRatio="xMidYMid meet">
<metadata>
Created by potrace 1.14, written by Peter Selinger 2001-2017
</metadata>
<g transform="translate(0.000000,584.000000) scale(0.100000,-0.100000)"
fill="#000000" stroke="none">
<path d="M0 2920 l0 -2920 2920 0 2920 0 0 2920 0 2920 -2920 0 -2920 0 0
-2920z m1515 2055 c253 -65 483 -278 635 -590 171 -348 256 -787 267 -1380 16
-873 -132 -1503 -443 -1884 -153 -188 -386 -320 -564 -321 -273 -1 -508 275
-486 570 7 98 30 162 111 309 204 371 348 746 390 1016 20 129 17 295 -9 420
-49 234 -223 642 -422 989 -73 128 -95 192 -101 296 -21 360 301 657 622 575z
m2990 0 c248 -64 421 -312 401 -575 -6 -92 -30 -162 -92 -277 -27 -48 -65
-119 -86 -158 -37 -69 -37 -69 -39 -35 -1 19 0 47 1 62 1 26 0 26 -112 -39
-298 -171 -756 -379 -1041 -473 l-97 -32 2 -566 3 -565 30 -10 c342 -109 767
-306 1123 -519 60 -36 87 -47 94 -40 8 8 7 16 -2 27 -8 10 -9 15 -1 15 6 0 10
3 10 8 -6 37 8 25 42 -38 22 -41 47 -82 54 -90 25 -30 65 -121 80 -182 87
-368 -222 -739 -565 -680 -322 55 -606 356 -763 809 -119 341 -170 719 -170
1268 0 662 75 1105 254 1484 202 428 570 684 874 606z"/>
</g>
</svg>
