{
  "accessors": [
    {
      "bufferView": 2,
      "componentType": 5126,
      "count": 10873,
      "max": [
        5.02217960357666,
        3.299999952316284,
        11.452287673950195
      ],
      "min": [
        -5.02217960357666,
        -1.2999999523162842,
        -11.452285766601563
      ],
      "type": "VEC3"
    },
    {
      "bufferView": 2,
      "byteOffset": 130476,
      "componentType": 5126,
      "count": 10873,
      "max": [
        1.0,
        1.0,
        1.0
      ],
      "min": [
        -1.0,
        -1.0,
        -1.0
      ],
      "type": "VEC3"
    },
    {
      "bufferView": 1,
      "componentType": 5126,
      "count": 10873,
      "max": [
        0.9997404217720032,
        0.9996885061264038
      ],
      "min": [
        0.0002595322148408741,
        0.000311434268951416
      ],
      "type": "VEC2"
    },
    {
      "bufferView": 1,
      "byteOffset": 86984,
      "componentType": 5126,
      "count": 10873,
      "max": [
        0.9999604821205139,
        1.0
      ],
      "min": [
        0.0,
        0.04261159896850586
      ],
      "type": "VEC2"
    },
    {
      "bufferView": 0,
      "componentType": 5125,
      "count": 54360,
      "type": "SCALAR"
    },
    {
      "bufferView": 2,
      "byteOffset": 260952,
      "componentType": 5126,
      "count": 36,
      "max": [
        5.0,
        -1.0,
        11.0
      ],
      "min": [
        -5.0,
        -1.0,
        -11.0
      ],
      "type": "VEC3"
    },
    {
      "bufferView": 2,
      "byteOffset": 261384,
      "componentType": 5126,
      "count": 36,
      "max": [
        0.0,
        1.0,
        -0.0
      ],
      "min": [
        0.0,
        1.0,
        -0.0
      ],
      "type": "VEC3"
    },
    {
      "bufferView": 1,
      "byteOffset": 173968,
      "componentType": 5126,
      "count": 36,
      "max": [
        0.25979137420654297,
        0.9996885061264038
      ],
      "min": [
        0.0002595322148408741,
        0.3144603967666626
      ],
      "type": "VEC2"
    },
    {
      "bufferView": 1,
      "byteOffset": 174256,
      "componentType": 5126,
      "count": 36,
      "max": [
        0.0,
        1.0
      ],
      "min": [
        0.0,
        1.0
      ],
      "type": "VEC2"
    },
    {
      "bufferView": 0,
      "byteOffset": 217440,
      "componentType": 5125,
      "count": 120,
      "type": "SCALAR"
    },
    {
      "bufferView": 2,
      "byteOffset": 261816,
      "componentType": 5126,
      "count": 9,
      "max": [
        -8.730618476867676,
        3.0,
        11.0
      ],
      "min": [
        -8.730618476867676,
        -0.9500001668930054,
        -11.0
      ],
      "type": "VEC3"
    },
    {
      "bufferView": 2,
      "byteOffset": 261924,
      "componentType": 5126,
      "count": 9,
      "max": [
        -1.0,
        0.0,
        -0.0
      ],
      "min": [
        -1.0,
        0.0,
        -0.0
      ],
      "type": "VEC3"
    },
    {
      "bufferView": 1,
      "byteOffset": 174544,
      "componentType": 5126,
      "count": 9,
      "max": [
        0.6228764057159424,
        0.9996885061264038
      ],
      "min": [
        0.5203610062599182,
        0.3144603371620178
      ],
      "type": "VEC2"
    },
    {
      "bufferView": 1,
      "byteOffset": 174616,
      "componentType": 5126,
      "count": 9,
      "max": [
        0.0,
        1.0
      ],
      "min": [
        0.0,
        1.0
      ],
      "type": "VEC2"
    },
    {
      "bufferView": 0,
      "byteOffset": 217920,
      "componentType": 5125,
      "count": 24,
      "type": "SCALAR"
    }
  ],
  "asset": {
    "extras": {
      "author": "Axon Park (https://sketchfab.com/axonpark)",
      "license": "CC-BY-4.0 (http://creativecommons.org/licenses/by/4.0/)",
      "source": "https://sketchfab.com/3d-models/axon-park-gallery-c68c485f49064b709dc162735705689a",
      "title": "Axon Park Gallery"
    },
    "generator": "Sketchfab-12.67.0",
    "version": "2.0"
  },
  "bufferViews": [
    {
      "buffer": 0,
      "byteLength": 218016,
      "name": "floatBufferViews",
      "target": 34963
    },
    {
      "buffer": 0,
      "byteLength": 174688,
      "byteOffset": 218016,
      "byteStride": 8,
      "name": "floatBufferViews",
      "target": 34962
    },
    {
      "buffer": 0,
      "byteLength": 262032,
      "byteOffset": 392704,
      "byteStride": 12,
      "name": "floatBufferViews",
      "target": 34962
    }
  ],
  "buffers": [
    {
      "byteLength": 654736,
      "uri": "scene.bin"
    }
  ],
  "extensionsUsed": [
    "KHR_materials_unlit"
  ],
  "images": [
    {
      "uri": "textures/GalleryMaster_baseColor.png"
    }
  ],
  "materials": [
    {
      "doubleSided": true,
      "extensions": {
        "KHR_materials_unlit": {}
      },
      "name": "GalleryMaster",
      "pbrMetallicRoughness": {
        "baseColorTexture": {
          "index": 0
        },
        "metallicFactor": 0.0
      }
    }
  ],
  "meshes": [
    {
      "name": "Object_0",
      "primitives": [
        {
          "attributes": {
            "NORMAL": 1,
            "POSITION": 0,
            "TEXCOORD_0": 2,
            "TEXCOORD_1": 3
          },
          "indices": 4,
          "material": 0,
          "mode": 4
        }
      ]
    },
    {
      "name": "Object_1",
      "primitives": [
        {
          "attributes": {
            "NORMAL": 6,
            "POSITION": 5,
            "TEXCOORD_0": 7,
            "TEXCOORD_1": 8
          },
          "indices": 9,
          "material": 0,
          "mode": 4
        }
      ]
    },
    {
      "name": "Object_2",
      "primitives": [
        {
          "attributes": {
            "NORMAL": 11,
            "POSITION": 10,
            "TEXCOORD_0": 12,
            "TEXCOORD_1": 13
          },
          "indices": 14,
          "material": 0,
          "mode": 4
        }
      ]
    }
  ],
  "nodes": [
    {
      "children": [
        1
      ],
      "matrix": [
        1.0,
        0.0,
        0.0,
        0.0,
        0.0,
        2.220446049250313e-16,
        -1.0,
        0.0,
        0.0,
        1.0,
        2.220446049250313e-16,
        0.0,
        0.0,
        0.0,
        0.0,
        1.0
      ],
      "name": "Sketchfab_model"
    },
    {
      "children": [
        2
      ],
      "name": "root"
    },
    {
      "children": [
        3,
        5,
        7
      ],
      "matrix": [
        1.0,
        0.0,
        0.0,
        0.0,
        0.0,
        2.220446049250313e-16,
        1.0,
        0.0,
        0.0,
        -1.0,
        2.220446049250313e-16,
        0.0,
        0.0,
        0.0,
        0.0,
        1.0
      ],
      "name": "GLTF_SceneRootNode"
    },
    {
      "children": [
        4
      ],
      "matrix": [
        1.0,
        0.0,
        0.0,
        0.0,
        0.0,
        1.0,
        0.0,
        0.0,
        0.0,
        0.0,
        1.0,
        0.0,
        0.0,
        1.0,
        0.0,
        1.0
      ],
      "name": "Gallery.001_1"
    },
    {
      "mesh": 0,
      "name": "Object_4"
    },
    {
      "children": [
        6
      ],
      "matrix": [
        1.0,
        0.0,
        0.0,
        0.0,
        0.0,
        1.0,
        0.0,
        0.0,
        0.0,
        0.0,
        1.0,
        0.0,
        0.0,
        1.125,
        0.0,
        1.0
      ],
      "name": "Gallery.004_2"
    },
    {
      "mesh": 1,
      "name": "Object_6"
    },
    {
      "children": [
        8
      ],
      "matrix": [
        1.0,
        0.0,
        0.0,
        0.0,
        0.0,
        1.0,
        0.0,
        0.0,
        0.0,
        0.0,
        1.0,
        0.0,
        13.696703910827637,
        0.9909337759017944,
        0.0,
        1.0
      ],
      "name": "Gallery.005_3"
    },
    {
      "mesh": 2,
      "name": "Object_8"
    }
  ],
  "samplers": [
    {
      "magFilter": 9729,
      "minFilter": 9987,
      "wrapS": 10497,
      "wrapT": 10497
    }
  ],
  "scene": 0,
  "scenes": [
    {
      "name": "Sketchfab_Scene",
      "nodes": [
        0
      ]
    }
  ],
  "textures": [
    {
      "sampler": 0,
      "source": 0
    }
  ]
}
